<?xml version="1.0" encoding="utf-8"?>
<!-- Generator: Adobe Illustrator 22.1.0, SVG Export Plug-In . SVG Version: 6.00 Build 0)  -->
<svg version="1.1" id="レイヤー_1" xmlns="http://www.w3.org/2000/svg" xmlns:xlink="http://www.w3.org/1999/xlink" x="0px"
	 y="0px" viewBox="0 0 19.4 19.4" style="enable-background:new 0 0 19.4 19.4;" xml:space="preserve">
<style type="text/css">
	.st0{fill:#FFFFFF;}
	.st1{fill:#C40000;}
	.st2{fill:#FBC7A6;}
	.st3{fill:#FEFEFF;}
	.st4{fill:#E0BE2F;}
	.st5{fill:#302422;}
	.st6{fill:#68490B;}
	.st7{fill:#FFCC33;}
	.st8{fill:#FECFAB;}
	.st9{fill:#271201;}
</style>
<g>
	<path class="st0" d="M13,8.3H6.4C6,8.3,5.6,7.9,5.6,7.5V0.9c0-0.4,0.3-0.7,0.7-0.7H13c0.4,0,0.7,0.3,0.7,0.7v6.7
		C13.8,7.9,13.4,8.3,13,8.3z"/>
	<g>
		<g>
			<path class="st1" d="M8.3,0.7C8.2,0.7,8.1,0.8,8.1,1V6C8.1,7,8,7.1,7.4,7.1H7c-0.2,0-0.2,0.1-0.2,0.2c0,0.1,0,0.2,0.2,0.2
				c0.1,0,0.4,0,0.7,0c0.9,0,1-0.6,1-1.5V1C8.6,0.8,8.5,0.7,8.3,0.7z"/>
			<path class="st1" d="M10.7,0.7h-0.7C9.4,0.7,9.3,1,9.3,1.5v5.8c0,0.2,0.1,0.3,0.2,0.3s0.2-0.1,0.2-0.3V4.9c0-0.2,0.1-0.3,0.5-0.3
				h0.4c1.5,0,2.1-0.6,2.1-2.1C12.7,1.3,12,0.7,10.7,0.7z M10.4,4.2c-0.6,0-0.7,0-0.7-0.5V1.7c0-0.4,0-0.5,0.5-0.5h0.5
				c1,0,1.5,0.3,1.5,1.4C12.2,3.9,11.7,4.2,10.4,4.2z"/>
		</g>
		<circle class="st1" cx="11" cy="2.6" r="0.5"/>
		<g>
			<g>
				<path class="st2" d="M11.9,3.5c0-0.1,0-0.3,0-0.4c0-0.1-0.1-0.1-0.1,0c0,0.1,0,0-0.1,0.1c0,0,0,0.1,0,0.1c0,0,0,0.2,0,0.4
					C11.8,3.8,11.9,3.5,11.9,3.5z"/>
				<path class="st3" d="M11.8,3.4L11.8,3.4c0-0.1,0.1-0.1,0.1-0.1c0,0,0,0.2,0,0.2S11.8,3.4,11.8,3.4z"/>
				<path class="st4" d="M11.7,4.8c-0.1-0.1-0.1-0.4,0-0.6c0-0.1,0.1-0.6,0.1-0.7c0-0.1,0-0.1,0-0.1l0.2,0c0,0,0.1,0.3,0,0.6
					s0,0.5-0.1,0.7C11.9,4.8,11.8,4.8,11.7,4.8z"/>
			</g>
			<path class="st5" d="M11.1,7.4c0,0.1,0,0.2-0.1,0.2c-0.1,0-0.2,0-0.2,0c0,0,0,0.1,0.2,0.1c0.2,0,0.2,0.1,0.3,0c0,0,0-0.1,0-0.3
				C11.2,7.2,11.1,7.4,11.1,7.4z"/>
			<path class="st5" d="M11.6,7c0,0.1,0,0.2,0,0.2c0,0-0.1,0-0.2,0c0,0,0,0.1,0.1,0.1c0.1,0,0.2,0.1,0.2,0.1s0.1-0.1,0.1-0.3
				C11.8,6.9,11.6,7,11.6,7z"/>
			<path class="st6" d="M11,5.7L11,7.6l0,0c0.1,0,0.2,0,0.2,0l0,0l0.1-1.4c0,0,0.1-0.1,0.1,0l0.1,1l0,0c0.1,0,0.1,0,0.2,0h0l0-1.6
				L11,5.7z"/>
			<path class="st7" d="M11.8,5.8c0,0,0.1-1.2,0-1.3c-0.1-0.2-0.3-0.3-0.4-0.2c-0.2,0-0.4,0.1-0.5,0.3c-0.1,0.2,0,0.6,0,0.8
				c0,0.2,0,0.5,0.1,0.5s0.2,0.1,0.5,0.1C11.8,6,11.8,5.8,11.8,5.8z"/>
			<path class="st8" d="M11.3,4.3C11.3,4.3,11.3,4.3,11.3,4.3c0-0.1-0.1-0.1-0.1-0.1c0,0-0.1-0.1-0.1-0.2c0-0.1,0-0.1,0-0.2
				s0.4-0.1,0.4,0.1c0,0.1,0.1,0.2,0.1,0.3c0,0-0.1,0.1-0.1,0.2c0,0,0,0-0.1,0.1C11.4,4.3,11.3,4.3,11.3,4.3z"/>
			<path class="st9" d="M11.2,3.8C11.2,3.8,11.2,3.8,11.2,3.8C11.2,3.9,11.2,3.9,11.2,3.8c0.1,0.1,0,0.2,0.1,0.2c0,0,0.1,0,0.1,0
				c0,0,0,0,0,0.1c0,0,0,0.1,0,0.1c0,0,0.1,0,0.1,0s0.2,0,0.2-0.1c0.1-0.1,0.1-0.2,0-0.4c-0.1-0.1-0.2-0.2-0.4-0.1
				c-0.1,0-0.1,0-0.2,0c0,0,0,0,0,0C11.1,3.7,11.1,3.8,11.2,3.8z"/>
			<path class="st0" d="M11.6,4.3c0,0-0.1,0.1-0.1,0.1c-0.1,0-0.2,0-0.2,0l0-0.1c0,0,0.1,0,0.2,0S11.6,4.2,11.6,4.3L11.6,4.3z"/>
			<g>
				<path class="st2" d="M10.5,3.8c0-0.1-0.1-0.3-0.2-0.3c-0.1-0.1,0.1-0.1,0.1,0c0,0.1,0,0,0.1,0c0,0,0,0.1,0,0.1
					c0,0,0.1,0.2,0.1,0.3S10.5,3.8,10.5,3.8z"/>
				<path class="st3" d="M10.6,3.6L10.6,3.6c0-0.1-0.2,0-0.2,0c0,0,0,0.2,0.1,0.2C10.5,3.8,10.6,3.6,10.6,3.6z"/>
				<path class="st4" d="M11.2,4.9c0.1-0.1-0.1-0.4-0.2-0.6s-0.3-0.6-0.4-0.6c0,0,0-0.1,0-0.1l-0.2,0c0,0,0.1,0.3,0.2,0.6
					s0.2,0.4,0.3,0.6C11.1,4.9,11.1,5,11.2,4.9z"/>
			</g>
		</g>
	</g>
</g>
</svg>
